Coordinates
version=1
nRows=54
nColumns=12
inDegrees=yes

Units are S.I. units (second, meters, Newtons, ...)
Angles are in degrees

endheader
time	SC_y	SC_z	SC_x	AC_y	AC_z	AC_x	GH_y	GH_z	GH_yy	EL_x	PS_y
       0.0              -11.72           34.6          58.21          40.08         -2.747          15.73          76.67          80.21         -159.5          76.73          43.39
   0.03808              -11.73          34.59           58.2          40.08          -2.75          15.73          76.67          80.21         -159.5          76.73          43.39
   0.07616              -11.73          34.59          58.19          40.08         -2.752          15.73          76.67           80.2         -159.5          76.72          43.39
    0.1142              -11.73          34.58          58.19          40.08         -2.755          15.72          76.66           80.2         -159.5          76.72          43.39
    0.1523              -11.74          34.57          58.18          40.09         -2.758          15.72          76.66          80.19         -159.5          76.71           43.4
    0.1904              -11.74          34.57          58.17          40.09         -2.761          15.72          76.66          80.18         -159.5          76.71           43.4
    0.2285              -11.74          34.56          58.15          40.09         -2.764          15.71          76.65          80.18         -159.5           76.7           43.4
    0.2665              -11.75          34.55          58.14           40.1         -2.767          15.71          76.65          80.17         -159.6           76.7           43.4
    0.3046              -11.75          34.54          58.13           40.1         -2.771           15.7          76.64          80.16         -159.6          76.69           43.4
    0.3427              -11.76          34.53          58.12          40.11         -2.775           15.7          76.64          80.15         -159.6          76.69           43.4
    0.3808              -11.76          34.52           58.1          40.11         -2.779          15.69          76.63          80.14         -159.6          76.68           43.4
    0.4189              -11.77          34.51          58.09          40.12         -2.784          15.68          76.62          80.13         -159.6          76.67           43.4
    0.4569              -11.78           34.5          58.07          40.12         -2.789          15.68          76.62          80.12         -159.6          76.67           43.4
     0.495              -11.78          34.49          58.05          40.13         -2.794          15.67          76.61          80.11         -159.6          76.66           43.4
    0.5331              -11.79          34.47          58.03          40.13           -2.8          15.66           76.6           80.1         -159.6          76.65          43.41
    0.5712               -11.8          34.46          58.01          40.14         -2.806          15.65          76.59          80.08         -159.6          76.64          43.41
    0.6092              -11.81          34.44          57.99          40.15         -2.813          15.64          76.58          80.07         -159.6          76.63          43.41
    0.6473              -11.82          34.42          57.96          40.16         -2.821          15.63          76.57          80.05         -159.6          76.62          43.41
    0.6854              -11.83           34.4          57.94          40.17         -2.829          15.62          76.56          80.03         -159.6          76.61          43.41
    0.7235              -11.84          34.38          57.91          40.18         -2.838          15.61          76.55          80.01         -159.6          76.59          43.42
    0.7616              -11.85          34.36          57.88          40.19         -2.848          15.59          76.53          79.99         -159.6          76.58          43.42
    0.7996              -11.87          34.33          57.84           40.2         -2.858          15.58          76.52          79.97         -159.6          76.56          43.42
    0.8377              -11.88           34.3           57.8          40.21          -2.87          15.56           76.5          79.94         -159.6          76.54          43.43
    0.8758               -11.9          34.27          57.76          40.23         -2.883          15.54          76.48          79.91         -159.6          76.53          43.43
    0.9139              -11.92          34.24          57.71          40.24         -2.898          15.52          76.46          79.88         -159.6           76.5          43.43
    0.9519              -11.94           34.2          57.65          40.26         -2.914           15.5          76.44          79.85         -159.6          76.48          43.44
      0.99              -11.96          34.15          57.59          40.28         -2.933          15.47          76.41          79.81         -159.6          76.45          43.44
     1.028              -11.99          34.11          57.52           40.3         -2.953          15.45          76.38          79.76         -159.7          76.42          43.45
     1.066              -12.02          34.05          57.44          40.33         -2.977          15.41          76.35          79.71         -159.7          76.39          43.45
     1.104              -12.05          33.99          57.36          40.36         -3.003          15.38          76.31          79.65         -159.7          76.35          43.46
     1.142              -12.09          33.91          57.25          40.39         -3.033          15.33          76.27          79.59         -159.7           76.3          43.47
      1.18              -12.14          33.83          57.14          40.43         -3.068          15.28          76.22          79.51         -159.7          76.25          43.48
     1.218              -12.19          33.74           57.0          40.48         -3.108          15.23          76.16          79.42         -159.7          76.19          43.49
     1.257              -12.25          33.63          56.85          40.53         -3.154          15.16           76.1          79.32         -159.8          76.12           43.5
     1.295              -12.32           33.5          56.67          40.59         -3.209          15.09          76.02           79.2         -159.8          76.04          43.52
     1.333               -12.4          33.34          56.45          40.66         -3.273           15.0          75.93          79.06         -159.8          75.94          43.53
     1.371               -12.5          33.16           56.2          40.74         -3.349          14.89          75.82          78.89         -159.9          75.83          43.55
     1.409              -12.62          32.94          55.89          40.84          -3.44          14.76          75.69          78.69         -159.9          75.69          43.58
     1.447              -12.76          32.68          55.52          40.97         -3.551          14.61          75.53          78.45         -160.0          75.52          43.61
     1.485              -12.94          32.36          55.07          41.12         -3.686          14.42          75.34          78.15         -160.1          75.32          43.65
     1.523              -13.15          31.96          54.52           41.3         -3.852          14.18          75.11          77.79         -160.2          75.07          43.69
     1.561              -13.42          31.46          53.82          41.53          -4.06          13.89          74.81          77.33         -160.3          74.76          43.75
     1.599              -13.76          30.84          52.95          41.82         -4.322          13.52          74.44          76.76         -160.4          74.37          43.82
     1.637              -14.19          30.05          51.84          42.19         -4.654          13.06          73.97          76.03         -160.6          73.87          43.91
     1.675              -14.74          29.03          50.41          42.66          -5.08          12.46          73.36          75.09         -160.9          73.23          44.02
     1.713              -15.45          27.73          48.59          43.27         -5.626          11.69          72.59          73.89         -161.2          72.41          44.17
     1.752              -16.35          26.06          46.25          44.04         -6.324          10.71           71.6          72.36         -161.6          71.37          44.36
      1.79              -17.48          23.97          43.32          45.01         -7.202          9.479          70.35          70.43         -162.0          70.05          44.59
     1.828              -18.86          21.41          39.75           46.2         -8.271          7.978          68.83          68.09         -162.6          68.45          44.88
     1.866              -20.47          18.46           35.6          47.57          -9.51          6.237          67.07          65.37         -163.3          66.59          45.22
     1.904               -22.2          15.25          31.12          49.06         -10.85          4.353          65.17          62.42         -164.1          64.57          45.58
     1.942              -23.94          12.05          26.63          50.55         -12.19          2.468          63.26          59.47         -164.9          62.56          45.94
      1.98              -25.54          9.091          22.49          51.92         -13.43         0.7275           61.5          56.75         -165.5           60.7          46.28
     2.018              -26.92          6.539          18.91          53.11          -14.5        -0.7741          59.99          54.41         -166.2           59.1          46.56
